<?xml version="1.0" encoding="UTF-8"?>
<svg width="16" height="16" viewBox="0 0 16 16" fill="none" xmlns="http://www.w3.org/2000/svg">
    <path d="M6.66667 8.66667C6.88333 8.88333 7.16667 9 7.46667 9C7.76667 9 8.05 8.88333 8.26667 8.66667L10.2667 6.66667C10.7 6.23333 10.7 5.53333 10.2667 5.1L8.26667 3.1C7.83333 2.66667 7.13333 2.66667 6.7 3.1C6.26667 3.53333 6.26667 4.23333 6.7 4.66667L7.46667 5.43333L5.93333 6.96667L5.16667 6.2C4.73333 5.76667 4.03333 5.76667 3.6 6.2C3.16667 6.63333 3.16667 7.33333 3.6 7.76667L6.66667 8.66667ZM9.33333 7.33333C9.11667 7.11667 8.83333 7 8.53333 7C8.23333 7 7.95 7.11667 7.73333 7.33333L5.73333 9.33333C5.3 9.76667 5.3 10.4667 5.73333 10.9L7.73333 12.9C8.16667 13.3333 8.86667 13.3333 9.3 12.9C9.73333 12.4667 9.73333 11.7667 9.3 11.3333L8.53333 10.5667L10.0667 9.03333L10.8333 9.8C11.2667 10.2333 11.2667 10.9333 10.8333 11.3667C10.4 11.8 9.7 11.8 9.26667 11.3667L9.33333 7.33333Z" fill="#64FFDA"/>
</svg> 